<?xml version="1.0" encoding="UTF-8" standalone="no"?>
<!-- 
Icon art from http://www.petercollingridge.co.uk/interactive-svg-components/pan-and-zoom-control
-->
<svg
   xmlns:dc="http://purl.org/dc/elements/1.1/"
   xmlns:cc="http://creativecommons.org/ns#"
   xmlns:rdf="http://www.w3.org/1999/02/22-rdf-syntax-ns#"
   xmlns:svg="http://www.w3.org/2000/svg"
   xmlns="http://www.w3.org/2000/svg"
   id="svg2"
   version="1.1">
  <style>
    svg { cursor: pointer; }
  </style>  
  
  
  <metadata
     id="metadata32">
    <rdf:RDF>
      <cc:Work
         rdf:about="">
        <dc:format>image/svg+xml</dc:format>
        <dc:type
           rdf:resource="http://purl.org/dc/dcmitype/StillImage" />
        <dc:title></dc:title>
      </cc:Work>
    </rdf:RDF>
  </metadata>
  <defs
     id="defs30" />
  <circle
     id="circle6"
     r="42"
     cy="50"
     cx="50"
     style="opacity:0.75;fill:#ffffff" />
  <path
     id="pan_up"
     d="M 50,10 62,30 A 40,70 0 0 0 38,30 Z"
     class="pan_button" />
  <path
     id="pan_left"
     d="M 10,50 30,38 a 70,40 0 0 0 0,24 z"
     class="pan_button" />
  <path
     id="pan_down"
     d="M 50,90 62,70 a 40,70 0 0 1 -24,0 z"
     class="pan_button" />
  <path
     id="pan_right"
     d="M 90,50 70,38 a 70,40 0 0 1 0,24 z"
     class="pan_button" />
  <circle
     id="circle16"
     r="20"
     cy="50"
     cx="50"
     class="compass" />
  <circle
     id="zoom_out"
     r="8"
     cy="41"
     cx="50"
     class="pan_button" />
  <circle
     id="zoom_in"
     r="8"
     cy="59"
     cx="50"
     class="pan_button" />
  <rect
     id="rect22"
     height="3"
     width="8"
     y="39.5"
     x="46"
     class="plus-minus" />
  <rect
     id="rect24"
     height="3"
     width="8"
     y="57.5"
     x="46"
     class="plus-minus" />
  <rect
     id="rect26"
     height="8"
     width="3"
     y="55"
     x="48.5"
     class="plus-minus" />
  <g id="reset" class="pan_button">
  <rect
     
     id="reset"
     width="40.484104"
     height="16.525423"
     x="2.0383296"
     y="2.7251577" />
  <text
     xml:space="preserve"
     style="font-style:normal; font-weight:normal; font-size:12px; font-family:sans-serif; fill:white;"
     x="4.525013"
     y="15.323822"
     id="text3373"><tspan
       style="stroke:none;"
       id="tspan3375"
       x="4.525013"
       y="15.323822">Reset</tspan></text>
</g>
</svg>
